<svg width="129" height="38" viewBox="0 0 129 38" fill="none" xmlns="http://www.w3.org/2000/svg">
<path d="M15.7969 33V16.2422H17.9648L28.2188 29.7422V16.2422H30.2695V33H28.1016L17.8477 19.3828V33H15.7969ZM34.8164 33H32.5664L39.6797 16.2422H42.082L49.2305 33H46.8281L44.6602 27.7266H39.1172L39.7148 25.9688H43.9336L40.8047 18.375L34.8164 33ZM63.6445 16.2422V18L53.6016 31.2422H63.4102V33H50.9883V31.2422L61.3477 18H51.2227V16.2422H63.6445ZM67.1016 33V16.2422H74.25C77.4375 16.2422 79.0312 17.543 79.0312 20.1445C79.0312 22.0508 77.9922 23.4141 75.9141 24.2344C78.1328 24.6484 79.2422 25.918 79.2422 28.043C79.2422 31.3477 77.4961 33 74.0039 33H67.1016ZM73.875 31.2422C75.875 31.2422 76.875 30.2266 76.875 28.1953C76.875 26.2188 75.5352 25.2305 72.8555 25.2305H71.918V23.8125C75.1211 23.3828 76.7227 22.2266 76.7227 20.3438C76.7227 18.7812 75.832 18 74.0508 18H69.2695V31.2422H73.875ZM83.2383 33H80.9883L88.1016 16.2422H90.5039L97.6523 33H95.25L93.082 27.7266H87.5391L88.1367 25.9688H92.3555L89.2266 18.375L83.2383 33ZM114.902 16.2422L107.789 33H105.387L98.2383 16.2422H100.523L106.664 30.75L112.652 16.2422H114.902Z" fill="black"/>
<path d="M46.9863 8.33984C46.8887 9.23828 46.5664 9.92578 46.0195 10.4023C45.4766 10.8789 44.752 11.1172 43.8457 11.1172C43.2129 11.1172 42.6523 10.959 42.1641 10.6426C41.6797 10.3262 41.3047 9.87891 41.0391 9.30078C40.7734 8.71875 40.6387 8.05469 40.6348 7.30859V6.20117C40.6348 5.44336 40.7676 4.77148 41.0332 4.18555C41.2988 3.59961 41.6797 3.14844 42.1758 2.83203C42.6758 2.51172 43.25 2.35156 43.8984 2.35156C44.8125 2.35156 45.5332 2.59961 46.0605 3.0957C46.5918 3.58789 46.9004 4.26953 46.9863 5.14062H46.2598C46.0801 3.69141 45.293 2.9668 43.8984 2.9668C43.125 2.9668 42.5078 3.25586 42.0469 3.83398C41.5898 4.41211 41.3613 5.21094 41.3613 6.23047V7.27344C41.3613 8.25781 41.584 9.04297 42.0293 9.62891C42.4785 10.2148 43.084 10.5078 43.8457 10.5078C44.5996 10.5078 45.168 10.3281 45.5508 9.96875C45.9336 9.60547 46.1699 9.0625 46.2598 8.33984H46.9863ZM48.1875 7.73633C48.1875 7.12695 48.3047 6.57812 48.5391 6.08984C48.7773 5.60156 49.1113 5.22266 49.541 4.95312C49.9746 4.67969 50.4648 4.54297 51.0117 4.54297C51.8555 4.54297 52.5391 4.83984 53.0625 5.43359C53.5859 6.02344 53.8477 6.80664 53.8477 7.7832V7.92969C53.8477 8.54297 53.7285 9.0957 53.4902 9.58789C53.2559 10.0762 52.9238 10.4531 52.4941 10.7188C52.0645 10.9844 51.5742 11.1172 51.0234 11.1172C50.1836 11.1172 49.5 10.8223 48.9727 10.2324C48.4492 9.63867 48.1875 8.85352 48.1875 7.87695V7.73633ZM48.8906 7.92969C48.8906 8.6875 49.0859 9.31055 49.4766 9.79883C49.8711 10.2832 50.3867 10.5254 51.0234 10.5254C51.6562 10.5254 52.168 10.2832 52.5586 9.79883C52.9531 9.31055 53.1504 8.66797 53.1504 7.87109V7.73633C53.1504 7.25195 53.0605 6.80859 52.8809 6.40625C52.7012 6.00391 52.4492 5.69336 52.125 5.47461C51.8008 5.25195 51.4297 5.14062 51.0117 5.14062C50.3867 5.14062 49.877 5.38672 49.4824 5.87891C49.0879 6.36719 48.8906 7.00781 48.8906 7.80078V7.92969ZM55.0195 7.77148C55.0195 6.78711 55.2383 6.00391 55.6758 5.42188C56.1172 4.83594 56.7148 4.54297 57.4688 4.54297C58.3242 4.54297 58.9766 4.88086 59.4258 5.55664V2H60.123V11H59.4668L59.4375 10.1562C58.9883 10.7969 58.3281 11.1172 57.457 11.1172C56.7266 11.1172 56.1367 10.8242 55.6875 10.2383C55.2422 9.64844 55.0195 8.85352 55.0195 7.85352V7.77148ZM55.7285 7.89453C55.7285 8.70312 55.8906 9.3418 56.2148 9.81055C56.5391 10.2754 56.9961 10.5078 57.5859 10.5078C58.4492 10.5078 59.0625 10.127 59.4258 9.36523V6.38867C59.0625 5.56445 58.4531 5.15234 57.5977 5.15234C57.0078 5.15234 56.5488 5.38477 56.2207 5.84961C55.8926 6.31055 55.7285 6.99219 55.7285 7.89453ZM64.4238 11.1172C63.8848 11.1172 63.3965 10.9844 62.959 10.7188C62.5254 10.4531 62.1875 10.084 61.9453 9.61133C61.7031 9.13477 61.582 8.60156 61.582 8.01172V7.75977C61.582 7.15039 61.6992 6.60156 61.9336 6.11328C62.1719 5.625 62.502 5.24219 62.9238 4.96484C63.3457 4.68359 63.8027 4.54297 64.2949 4.54297C65.0645 4.54297 65.6738 4.80664 66.123 5.33398C66.5762 5.85742 66.8027 6.57422 66.8027 7.48438V7.87695H62.2793V8.01172C62.2793 8.73047 62.4844 9.33008 62.8945 9.81055C63.3086 10.2871 63.8281 10.5254 64.4531 10.5254C64.8281 10.5254 65.1582 10.457 65.4434 10.3203C65.7324 10.1836 65.9941 9.96484 66.2285 9.66406L66.668 9.99805C66.1523 10.7441 65.4043 11.1172 64.4238 11.1172ZM64.2949 5.14062C63.7676 5.14062 63.3223 5.33398 62.959 5.7207C62.5996 6.10742 62.3809 6.62695 62.3027 7.2793H66.1055V7.20312C66.0859 6.59375 65.9121 6.09766 65.584 5.71484C65.2559 5.33203 64.8262 5.14062 64.2949 5.14062ZM67.8867 7.77148C67.8867 6.78711 68.1055 6.00391 68.543 5.42188C68.9844 4.83594 69.582 4.54297 70.3359 4.54297C71.1914 4.54297 71.8438 4.88086 72.293 5.55664V2H72.9902V11H72.334L72.3047 10.1562C71.8555 10.7969 71.1953 11.1172 70.3242 11.1172C69.5938 11.1172 69.0039 10.8242 68.5547 10.2383C68.1094 9.64844 67.8867 8.85352 67.8867 7.85352V7.77148ZM68.5957 7.89453C68.5957 8.70312 68.7578 9.3418 69.082 9.81055C69.4062 10.2754 69.8633 10.5078 70.4531 10.5078C71.3164 10.5078 71.9297 10.127 72.293 9.36523V6.38867C71.9297 5.56445 71.3203 5.15234 70.4648 5.15234C69.875 5.15234 69.416 5.38477 69.0879 5.84961C68.7598 6.31055 68.5957 6.99219 68.5957 7.89453ZM82.8574 7.89453C82.8574 8.88281 82.6387 9.66797 82.2012 10.25C81.7637 10.8281 81.1758 11.1172 80.4375 11.1172C79.5547 11.1172 78.8867 10.7891 78.4336 10.1328L78.4043 11H77.748V2H78.4453V5.58008C78.8906 4.88867 79.5508 4.54297 80.4258 4.54297C81.1758 4.54297 81.7676 4.83008 82.2012 5.4043C82.6387 5.97461 82.8574 6.76953 82.8574 7.78906V7.89453ZM82.1543 7.77148C82.1543 6.93555 81.9922 6.29102 81.668 5.83789C81.3438 5.38086 80.8867 5.15234 80.2969 5.15234C79.8477 5.15234 79.4668 5.26367 79.1543 5.48633C78.8418 5.70508 78.6055 6.02734 78.4453 6.45312V9.3125C78.7969 10.1094 79.418 10.5078 80.3086 10.5078C80.8867 10.5078 81.3379 10.2793 81.6621 9.82227C81.9902 9.36523 82.1543 8.68164 82.1543 7.77148ZM86.3496 9.99219L88.2012 4.66016H88.957L86.25 12.0781L86.1094 12.4062C85.7617 13.1758 85.2246 13.5605 84.498 13.5605C84.3301 13.5605 84.1504 13.5332 83.959 13.4785L83.9531 12.8984L84.3164 12.9336C84.6602 12.9336 84.9375 12.8477 85.1484 12.6758C85.3633 12.5078 85.5449 12.2168 85.6934 11.8027L86.0039 10.9473L83.6133 4.66016H84.3809L86.3496 9.99219Z" fill="black"/>
</svg>
