<svg width="89" height="27" viewBox="0 0 89 27" fill="none" xmlns="http://www.w3.org/2000/svg">
<path d="M56.4648 22V5.24219H58.6328L68.8867 18.7422V5.24219H70.9375V22H68.7695L58.5156 8.38281V22H56.4648ZM74.9336 22V5.24219H82.082C85.2695 5.24219 86.8633 6.54297 86.8633 9.14453C86.8633 11.0508 85.8242 12.4141 83.7461 13.2344C85.9648 13.6484 87.0742 14.918 87.0742 17.043C87.0742 20.3477 85.3281 22 81.8359 22H74.9336ZM81.707 20.2422C83.707 20.2422 84.707 19.2266 84.707 17.1953C84.707 15.2188 83.3672 14.2305 80.6875 14.2305H79.75V12.8125C82.9531 12.3828 84.5547 11.2266 84.5547 9.34375C84.5547 7.78125 83.6641 7 81.8828 7H77.1016V20.2422H81.707Z" fill="black"/>
<path d="M9.34679 15.3398C9.24914 16.2383 8.92687 16.9258 8.38 17.4023C7.83703 17.8789 7.11242 18.1172 6.20617 18.1172C5.57336 18.1172 5.01281 17.959 4.52453 17.6426C4.04015 17.3262 3.66515 16.8789 3.39953 16.3008C3.1339 15.7188 2.99914 15.0547 2.99523 14.3086V13.2012C2.99523 12.4434 3.12804 11.7715 3.39367 11.1855C3.65929 10.5996 4.04015 10.1484 4.53625 9.83203C5.03625 9.51172 5.61047 9.35156 6.2589 9.35156C7.17297 9.35156 7.89367 9.59961 8.42101 10.0957C8.95226 10.5879 9.26086 11.2695 9.34679 12.1406H8.62023C8.44054 10.6914 7.65343 9.9668 6.2589 9.9668C5.48547 9.9668 4.86828 10.2559 4.40734 10.834C3.95031 11.4121 3.72179 12.2109 3.72179 13.2305V14.2734C3.72179 15.2578 3.94445 16.043 4.38976 16.6289C4.83898 17.2148 5.44445 17.5078 6.20617 17.5078C6.96008 17.5078 7.52843 17.3281 7.91125 16.9688C8.29406 16.6055 8.53039 16.0625 8.62023 15.3398H9.34679ZM10.548 14.7363C10.548 14.127 10.6652 13.5781 10.8995 13.0898C11.1378 12.6016 11.4718 12.2227 11.9015 11.9531C12.3351 11.6797 12.8253 11.543 13.3722 11.543C14.2159 11.543 14.8995 11.8398 15.423 12.4336C15.9464 13.0234 16.2081 13.8066 16.2081 14.7832V14.9297C16.2081 15.543 16.089 16.0957 15.8507 16.5879C15.6163 17.0762 15.2843 17.4531 14.8546 17.7188C14.4249 17.9844 13.9347 18.1172 13.3839 18.1172C12.5441 18.1172 11.8605 17.8223 11.3331 17.2324C10.8097 16.6387 10.548 15.8535 10.548 14.877V14.7363ZM11.2511 14.9297C11.2511 15.6875 11.4464 16.3105 11.837 16.7988C12.2316 17.2832 12.7472 17.5254 13.3839 17.5254C14.0167 17.5254 14.5284 17.2832 14.9191 16.7988C15.3136 16.3105 15.5109 15.668 15.5109 14.8711V14.7363C15.5109 14.252 15.421 13.8086 15.2413 13.4062C15.0616 13.0039 14.8097 12.6934 14.4855 12.4746C14.1612 12.252 13.7902 12.1406 13.3722 12.1406C12.7472 12.1406 12.2374 12.3867 11.8429 12.8789C11.4484 13.3672 11.2511 14.0078 11.2511 14.8008V14.9297ZM17.38 14.7715C17.38 13.7871 17.5987 13.0039 18.0362 12.4219C18.4777 11.8359 19.0753 11.543 19.8292 11.543C20.6847 11.543 21.337 11.8809 21.7862 12.5566V9H22.4835V18H21.8273L21.798 17.1562C21.3487 17.7969 20.6886 18.1172 19.8175 18.1172C19.087 18.1172 18.4972 17.8242 18.048 17.2383C17.6027 16.6484 17.38 15.8535 17.38 14.8535V14.7715ZM18.089 14.8945C18.089 15.7031 18.2511 16.3418 18.5753 16.8105C18.8995 17.2754 19.3566 17.5078 19.9464 17.5078C20.8097 17.5078 21.423 17.127 21.7862 16.3652V13.3887C21.423 12.5645 20.8136 12.1523 19.9581 12.1523C19.3683 12.1523 18.9093 12.3848 18.5812 12.8496C18.253 13.3105 18.089 13.9922 18.089 14.8945ZM26.7843 18.1172C26.2452 18.1172 25.757 17.9844 25.3195 17.7188C24.8859 17.4531 24.548 17.084 24.3058 16.6113C24.0636 16.1348 23.9425 15.6016 23.9425 15.0117V14.7598C23.9425 14.1504 24.0597 13.6016 24.2941 13.1133C24.5323 12.625 24.8624 12.2422 25.2843 11.9648C25.7062 11.6836 26.1632 11.543 26.6554 11.543C27.4249 11.543 28.0343 11.8066 28.4835 12.334C28.9366 12.8574 29.1632 13.5742 29.1632 14.4844V14.877H24.6398V15.0117C24.6398 15.7305 24.8448 16.3301 25.255 16.8105C25.6691 17.2871 26.1886 17.5254 26.8136 17.5254C27.1886 17.5254 27.5187 17.457 27.8038 17.3203C28.0929 17.1836 28.3546 16.9648 28.589 16.6641L29.0284 16.998C28.5128 17.7441 27.7648 18.1172 26.7843 18.1172ZM26.6554 12.1406C26.128 12.1406 25.6827 12.334 25.3195 12.7207C24.9601 13.1074 24.7413 13.627 24.6632 14.2793H28.4659V14.2031C28.4464 13.5938 28.2726 13.0977 27.9445 12.7148C27.6163 12.332 27.1866 12.1406 26.6554 12.1406ZM30.2472 14.7715C30.2472 13.7871 30.4659 13.0039 30.9034 12.4219C31.3448 11.8359 31.9425 11.543 32.6964 11.543C33.5519 11.543 34.2042 11.8809 34.6534 12.5566V9H35.3507V18H34.6945L34.6652 17.1562C34.2159 17.7969 33.5558 18.1172 32.6847 18.1172C31.9542 18.1172 31.3644 17.8242 30.9152 17.2383C30.4698 16.6484 30.2472 15.8535 30.2472 14.8535V14.7715ZM30.9562 14.8945C30.9562 15.7031 31.1183 16.3418 31.4425 16.8105C31.7667 17.2754 32.2237 17.5078 32.8136 17.5078C33.6769 17.5078 34.2902 17.127 34.6534 16.3652V13.3887C34.2902 12.5645 33.6808 12.1523 32.8253 12.1523C32.2355 12.1523 31.7765 12.3848 31.4484 12.8496C31.1202 13.3105 30.9562 13.9922 30.9562 14.8945ZM45.2179 14.8945C45.2179 15.8828 44.9991 16.668 44.5616 17.25C44.1241 17.8281 43.5362 18.1172 42.798 18.1172C41.9152 18.1172 41.2472 17.7891 40.7941 17.1328L40.7648 18H40.1085V9H40.8058V12.5801C41.2511 11.8887 41.9112 11.543 42.7862 11.543C43.5362 11.543 44.128 11.8301 44.5616 12.4043C44.9991 12.9746 45.2179 13.7695 45.2179 14.7891V14.8945ZM44.5148 14.7715C44.5148 13.9355 44.3527 13.291 44.0284 12.8379C43.7042 12.3809 43.2472 12.1523 42.6573 12.1523C42.2081 12.1523 41.8273 12.2637 41.5148 12.4863C41.2023 12.7051 40.9659 13.0273 40.8058 13.4531V16.3125C41.1573 17.1094 41.7784 17.5078 42.6691 17.5078C43.2472 17.5078 43.6984 17.2793 44.0226 16.8223C44.3507 16.3652 44.5148 15.6816 44.5148 14.7715ZM48.7101 16.9922L50.5616 11.6602H51.3175L48.6105 19.0781L48.4698 19.4062C48.1222 20.1758 47.5851 20.5605 46.8585 20.5605C46.6905 20.5605 46.5109 20.5332 46.3195 20.4785L46.3136 19.8984L46.6769 19.9336C47.0206 19.9336 47.298 19.8477 47.5089 19.6758C47.7237 19.5078 47.9054 19.2168 48.0538 18.8027L48.3644 17.9473L45.9737 11.6602H46.7413L48.7101 16.9922Z" fill="black"/>
</svg>
