<svg width="70" height="27" viewBox="0 0 70 27" fill="none" xmlns="http://www.w3.org/2000/svg">
<path d="M19.9648 22V5.24219H22.1328L32.3867 18.7422V5.24219H34.4375V22H32.2695L22.0156 8.38281V22H19.9648ZM38.4336 22V5.24219H45.582C48.7695 5.24219 50.3633 6.54297 50.3633 9.14453C50.3633 11.0508 49.3242 12.4141 47.2461 13.2344C49.4648 13.6484 50.5742 14.918 50.5742 17.043C50.5742 20.3477 48.8281 22 45.3359 22H38.4336ZM45.207 20.2422C47.207 20.2422 48.207 19.2266 48.207 17.1953C48.207 15.2188 46.8672 14.2305 44.1875 14.2305H43.25V12.8125C46.4531 12.3828 48.0547 11.2266 48.0547 9.34375C48.0547 7.78125 47.1641 7 45.3828 7H40.6016V20.2422H45.207Z" fill="black"/>
</svg>
