<svg width="117" height="27" viewBox="0 0 117 27" fill="none" xmlns="http://www.w3.org/2000/svg">
<path d="M9.79688 22V5.24219H11.9648L22.2188 18.7422V5.24219H24.2695V22H22.1016L11.8477 8.38281V22H9.79688ZM28.8164 22H26.5664L33.6797 5.24219H36.082L43.2305 22H40.8281L38.6602 16.7266H33.1172L33.7148 14.9688H37.9336L34.8047 7.375L28.8164 22ZM57.6445 5.24219V7L47.6016 20.2422H57.4102V22H44.9883V20.2422L55.3477 7H45.2227V5.24219H57.6445ZM61.1016 22V5.24219H68.25C71.4375 5.24219 73.0312 6.54297 73.0312 9.14453C73.0312 11.0508 71.9922 12.4141 69.9141 13.2344C72.1328 13.6484 73.2422 14.918 73.2422 17.043C73.2422 20.3477 71.4961 22 68.0039 22H61.1016ZM67.875 20.2422C69.875 20.2422 70.875 19.2266 70.875 17.1953C70.875 15.2188 69.5352 14.2305 66.8555 14.2305H65.918V12.8125C69.1211 12.3828 70.7227 11.2266 70.7227 9.34375C70.7227 7.78125 69.832 7 68.0508 7H63.2695V20.2422H67.875ZM77.2383 22H74.9883L82.1016 5.24219H84.5039L91.6523 22H89.25L87.082 16.7266H81.5391L82.1367 14.9688H86.3555L83.2266 7.375L77.2383 22ZM108.902 5.24219L101.789 22H99.3867L92.2383 5.24219H94.5234L100.664 19.75L106.652 5.24219H108.902Z" fill="black"/>
</svg>
